<?xml version='1.0' encoding='ASCII' standalone='yes'?>
<svg xmlns="http://www.w3.org/2000/svg" xmlns:xlink="http://www.w3.org/1999/xlink" version="1.1" width="8.0cm" viewBox="0 0 8.0 8.0" height="8.0cm">
  <g>
    <g>
      <g><rect width="100%" height="100%" style="fill:aliceblue;stroke:gray;stroke-width:1"/>
<line x1="250.0" y1="250.0" x2="350.0" y2="250.0" stroke-linecap="round" style="stroke:green;stroke-width:5"/>
<line x1="350.0" y1="250.0" x2="350.0" y2="150.0" stroke-linecap="round" style="stroke:dodgerblue;stroke-width:2"/>
<line x1="250.0" y1="150.0" x2="250.0" y2="250.0" stroke-linecap="round" style="stroke:purple;stroke-width:2"/>
<g id="turtle2" visibility="visible" transform="rotate(225,300.0,200.0) translate(300.0, 200.0)">
<polygon points="0,16 2,14 1,10 4,7 7,9 9,8 6,5 7,1 5,-3 8,-6 6,-8 4,-5 0,-7 -4,-5 -6,-8 -8,-6 -5,-3 -7,1 -6,5 -9,8 -7,9 -4,7 -1,10 -2,14" transform="skewX(0) scale(1,1)" style="stroke:green;stroke-width:1;fill:green"/>
</g> 
</g>
    </g>
  </g>
</svg>
